# xmcd CD database file
#
# Track frame offsets:
#	183
#	23583
#	37533
#	65808
#	77133
#	96858
#	110958
#	176208
#	194058
#	219783
#	249858
#
# Disc length: 3998 seconds
#
# Revision: 5
# Processed by: cddbd v1.5.2PL0 Copyright (c) Steve Scherf et al.
# Submitted via: CDex 1.51
#
DISCID=920f9c0b
DTITLE=Various Artist - Russian Easter  (Nikolai Korniev, St. Petersburg Chamber Choir)
DYEAR=1996
DGENRE=Classique
TTITLE0=Anon. (c. XVIII cent) - Alleluia. Behold the Bridegroom
TTITLE1=Victor Kalinnikov (1870-1927) - Gentle Light
TTITLE2=Alexander Grechaninov (1964-1956) - Of Thy Mystical Supper, Op.58
TTITLE3=Pavel Chesnokov (1877-1944) - The Wise Thief, Op.40 n°3
TTITLE4=Pavel Chesnokov (1877-1944) - Let All Mortal Flesh Keep Silent, Op.27 n°1)
TTITLE5=Hieromonk Jonathan (1949) - In the Flesh Thou Didst Fall Asleep
TTITLE6=Pavel Chesnokov (1877-1944) - The Paschal Hours
TTITLE7=Pavel Chesnokov (1877-1944) - Paschal Hymn to the Virgin
TTITLE8=Stepan Dekhteryov (1766-1813) - Today All Creation
TTITLE9=Dimitri Bortnyansky (1751-1825) - Come, o People (Concerto N°15)
TTITLE10=Alexander Grechaninov (1964-1956) - Give Ear to My Prayer, Op.26
EXTD=YEAR: 1996
EXTT0=
EXTT1=
EXTT2=
EXTT3=
EXTT4=
EXTT5=
EXTT6=
EXTT7=
EXTT8=
EXTT9=
EXTT10=
PLAYORDER=
